<svg width="40" height="40" viewBox="0 0 40 40" fill="none" xmlns="http://www.w3.org/2000/svg">
<path d="M12.5 0H32.5C35.2614 0 37.5 2.23858 37.5 5V30C37.5 32.7614 35.2614 35 32.5 35C32.5 37.7614 30.2614 40 27.5 40H7.5C4.73858 40 2.5 37.7614 2.5 35H5C5 36.3807 6.11929 37.5 7.5 37.5H27.5C28.8807 37.5 30 36.3807 30 35V10C30 8.61929 28.8807 7.5 27.5 7.5H7.5C6.11929 7.5 5 8.61929 5 10H2.5C2.5 7.23858 4.73858 5 7.5 5H27.5C30.2614 5 32.5 7.23858 32.5 10V32.5C33.8807 32.5 35 31.3807 35 30V5C35 3.61929 33.8807 2.5 32.5 2.5H12.5C11.1193 2.5 10 3.61929 10 5L7.5 5C7.5 2.23858 9.73858 0 12.5 0Z" fill="#212529"/>
<path d="M2.5 15V13.75C2.5 13.0596 3.05964 12.5 3.75 12.5C4.44036 12.5 5 13.0596 5 13.75V15H6.25C6.94036 15 7.5 15.5596 7.5 16.25C7.5 16.9404 6.94036 17.5 6.25 17.5H1.25C0.559644 17.5 0 16.9404 0 16.25C0 15.5596 0.559644 15 1.25 15H2.5Z" fill="#212529"/>
<path d="M2.5 22.5V21.25C2.5 20.5596 3.05964 20 3.75 20C4.44036 20 5 20.5596 5 21.25V22.5H6.25C6.94036 22.5 7.5 23.0596 7.5 23.75C7.5 24.4404 6.94036 25 6.25 25H1.25C0.559644 25 0 24.4404 0 23.75C0 23.0596 0.559644 22.5 1.25 22.5H2.5Z" fill="#212529"/>
<path d="M2.5 28.75V30H1.25C0.559644 30 0 30.5596 0 31.25C0 31.9404 0.559644 32.5 1.25 32.5H6.25C6.94036 32.5 7.5 31.9404 7.5 31.25C7.5 30.5596 6.94036 30 6.25 30H5V28.75C5 28.0596 4.44036 27.5 3.75 27.5C3.05964 27.5 2.5 28.0596 2.5 28.75Z" fill="#212529"/>
</svg>
