<?xml version="1.0" encoding="utf-8"?>
<svg xmlns="http://www.w3.org/2000/svg" version="1.1" width="512px" height="512px" style="shape-rendering:geometricPrecision; text-rendering:geometricPrecision; image-rendering:optimizeQuality; fill-rule:evenodd; clip-rule:evenodd">
  <g>
    <path style="opacity: 0.928; fill: rgb(255, 255, 255);" d="M 387.5,-0.5 C 397.167,-0.5 406.833,-0.5 416.5,-0.5C 468.714,10.0477 500.381,41.3811 511.5,93.5C 511.5,102.167 511.5,110.833 511.5,119.5C 504.436,148.181 494.269,175.847 481,202.5C 464.193,237.456 445.859,271.456 426,304.5C 417.572,313.976 407.072,317.476 394.5,315C 386.987,313.162 381.153,308.996 377,302.5C 354.184,263.205 333.184,222.872 314,181.5C 307.35,166.552 301.683,151.219 297,135.5C 285.559,81.896 303.059,40.7294 349.5,12C 361.592,5.69113 374.258,1.52446 387.5,-0.5 Z M 401.5,15.5 C 446.953,19.1248 477.12,42.4581 492,85.5C 495.542,100.918 495.208,116.251 491,131.5C 477.276,170.949 460.276,208.949 440,245.5C 431,261.5 422,277.5 413,293.5C 406.686,299.792 400.02,300.125 393,294.5C 363.449,246.064 338.115,195.397 317,142.5C 301.79,98.4766 312.29,61.9766 348.5,33C 364.647,22.2285 382.314,16.3951 401.5,15.5 Z M 395.5,54.5 C 422.661,53.3191 441.827,64.9857 453,89.5C 461.233,119.143 452.066,141.643 425.5,157C 401.959,166.407 381.125,162.24 363,144.5C 345.148,122.212 344.148,99.212 360,75.5C 369.409,64.2188 381.243,57.2188 395.5,54.5 Z"/>
  </g>
  <g>
    <path style="opacity: 0.957; fill: rgb(255, 255, 255);" d="M 447.5,511.5 C 300.5,511.5 153.5,511.5 6.5,511.5C 2.75934,508.444 1.59267,504.444 3,499.5C 3.37424,498.584 3.87424,497.75 4.5,497C 11.7194,495.571 19.0528,495.071 26.5,495.5C 26.6667,428.833 26.5,362.166 26,295.5C 12.0389,287.233 3.20552,275.233 -0.5,259.5C -0.5,245.833 -0.5,232.167 -0.5,218.5C 23.1365,188.018 46.6365,157.352 70,126.5C 75.6372,119.932 82.8038,116.432 91.5,116C 148.674,115.864 205.84,115.697 263,115.5C 267.253,115.442 271.42,115.942 275.5,117C 281.037,122.48 280.704,127.48 274.5,132C 271.447,132.179 268.447,132.679 265.5,133.5C 269.941,160.478 274.274,187.478 278.5,214.5C 289.505,214.333 300.505,214.5 311.5,215C 314.666,216.666 316,219.332 315.5,223C 315.802,227.368 313.802,230.035 309.5,231C 299.506,231.5 289.506,231.666 279.5,231.5C 275.6,249.767 280.267,265.267 293.5,278C 308.367,288.24 323.033,287.907 337.5,277C 346.661,276.171 350.161,280.338 348,289.5C 331.578,302.986 313.412,305.82 293.5,298C 284.422,293.25 276.922,286.75 271,278.5C 252.39,302.278 229.223,308.111 201.5,296C 193.923,291.633 187.757,285.8 183,278.5C 166.488,301.009 144.988,307.509 118.5,298C 108.857,293.843 101.19,287.343 95.5,278.5C 83.0427,296.228 66.0427,303.895 44.5,301.5C 43.5,366.163 43.1667,430.83 43.5,495.5C 107.833,495.5 172.167,495.5 236.5,495.5C 236.333,451.165 236.5,406.832 237,362.5C 239.5,350.667 246.667,343.5 258.5,341C 286.5,340.333 314.5,340.333 342.5,341C 354.473,342.974 361.973,349.808 365,361.5C 365.5,406.165 365.667,450.832 365.5,495.5C 380.833,495.5 396.167,495.5 411.5,495.5C 411.333,441.166 411.5,386.832 412,332.5C 417,327.167 422,327.167 427,332.5C 427.5,386.832 427.667,441.166 427.5,495.5C 434.175,495.334 440.842,495.5 447.5,496C 452.752,501.161 452.752,506.327 447.5,511.5 Z M 92.5,132.5 C 103.853,132.168 115.186,132.501 126.5,133.5C 114.059,160.047 101.893,186.714 90,213.5C 68.2395,214.66 46.4062,214.827 24.5,214C 43.6667,188.833 62.8333,163.667 82,138.5C 85.0688,135.554 88.5688,133.554 92.5,132.5 Z M 146.5,132.5 C 160.167,132.5 173.833,132.5 187.5,132.5C 183.283,159.804 179.283,187.137 175.5,214.5C 153.49,214.833 131.49,214.5 109.5,213.5C 121.574,186.355 133.907,159.355 146.5,132.5 Z M 205.5,132.5 C 219.833,132.5 234.167,132.5 248.5,132.5C 252.717,159.801 256.717,187.134 260.5,214.5C 237.831,214.667 215.164,214.5 192.5,214C 197.248,186.934 201.581,159.767 205.5,132.5 Z M 15.5,231.5 C 39.5,231.5 63.5,231.5 87.5,231.5C 87.7014,240.208 87.2014,248.875 86,257.5C 78.7862,278.393 64.2862,287.227 42.5,284C 29.5726,279.406 21.0726,270.573 17,257.5C 15.7986,248.875 15.2986,240.208 15.5,231.5 Z M 103.5,231.5 C 127.167,231.5 150.833,231.5 174.5,231.5C 174.666,240.173 174.5,248.84 174,257.5C 166.786,278.393 152.286,287.227 130.5,284C 117.573,279.406 109.073,270.573 105,257.5C 103.799,248.875 103.299,240.208 103.5,231.5 Z M 191.5,231.5 C 215.167,231.5 238.833,231.5 262.5,231.5C 266.08,250.55 260.746,266.384 246.5,279C 226.973,289.695 210.473,286.195 197,268.5C 194.775,264.719 193.109,260.719 192,256.5C 191.5,248.173 191.334,239.84 191.5,231.5 Z M 260.5,357.5 C 287.169,357.333 313.835,357.5 340.5,358C 343.196,358.69 345.363,360.19 347,362.5C 348.489,406.748 348.989,451.082 348.5,495.5C 316.833,495.5 285.167,495.5 253.5,495.5C 253.333,451.832 253.5,408.165 254,364.5C 255.018,360.985 257.185,358.652 260.5,357.5 Z M 93.5,361.5 C 124.588,361.015 155.588,361.515 186.5,363C 187.701,363.903 188.535,365.069 189,366.5C 189.978,388.589 189.644,410.589 188,432.5C 187.167,433.333 186.333,434.167 185.5,435C 153.748,435.985 122.081,435.651 90.5,434C 88.9963,432.509 88.1629,430.676 88,428.5C 87.3333,408.833 87.3333,389.167 88,369.5C 88.1352,365.551 89.9685,362.884 93.5,361.5 Z M 279.5,389.5 C 293.833,389.5 308.167,389.5 322.5,389.5C 322.5,396.5 322.5,403.5 322.5,410.5C 308.167,410.5 293.833,410.5 279.5,410.5C 279.5,403.5 279.5,396.5 279.5,389.5 Z"/>
  </g>
  <g>
    <path style="opacity: 0.902; fill: rgb(255, 255, 255);" d="M 266.5,443.5 C 269.518,443.335 272.518,443.502 275.5,444C 277.487,445.319 278.654,447.152 279,449.5C 280.022,455.68 279.522,461.68 277.5,467.5C 272.345,471.724 267.512,471.39 263,466.5C 262.333,460.167 262.333,453.833 263,447.5C 263.69,445.65 264.856,444.316 266.5,443.5 Z"/>
  </g>
</svg>