<?xml version="1.0" encoding="utf-8"?>
<svg xmlns="http://www.w3.org/2000/svg" version="1.1" width="512px" height="512px" style="shape-rendering:geometricPrecision; text-rendering:geometricPrecision; image-rendering:optimizeQuality; fill-rule:evenodd; clip-rule:evenodd">
  <g>
    <path style="opacity: 0.949; fill: rgb(255, 255, 255);" d="M 244.5,54.5 C 282.92,52.0934 304.587,69.9267 309.5,108C 309.063,120.649 305.063,131.982 297.5,142C 353.136,153.191 406.636,146.691 458,122.5C 473.475,117.545 485.475,121.878 494,135.5C 500.452,153.754 494.952,166.92 477.5,175C 460.167,182 442.833,189 425.5,196C 391.497,208.389 356.497,212.556 320.5,208.5C 320.667,231.169 320.5,253.836 320,276.5C 318.471,279.516 315.971,280.849 312.5,280.5C 308.823,280.664 306.323,278.997 305,275.5C 304.333,249.167 304.333,222.833 305,196.5C 305.785,194.714 306.951,193.214 308.5,192C 328.131,193.269 347.798,193.602 367.5,193C 381.09,191.615 394.423,188.949 407.5,185C 430.405,176.588 453.072,167.588 475.5,158C 481.699,151.951 482.032,145.617 476.5,139C 473.119,136.755 469.452,136.088 465.5,137C 406.648,164.266 345.648,170.432 282.5,155.5C 263.794,165.124 245.294,164.79 227,154.5C 163.452,170.634 101.952,164.801 42.5,137C 33.6868,135.466 28.3535,139.133 26.5,148C 27.2225,152.114 29.2225,155.447 32.5,158C 59.426,170.309 87.0927,180.642 115.5,189C 141.011,194.005 166.678,194.838 192.5,191.5C 196.681,190.747 199.847,192.08 202,195.5C 202.667,222.5 202.667,249.5 202,276.5C 201.5,278.333 200.333,279.5 198.5,280C 192.663,281.992 188.829,280.158 187,274.5C 186.5,252.503 186.333,230.503 186.5,208.5C 148.633,212.683 111.967,207.85 76.5,194C 59.5,187 42.5,180 25.5,173C 10.1138,162.081 6.94711,148.248 16,131.5C 24.7269,121.275 35.5603,118.109 48.5,122C 100.305,146.559 154.305,153.226 210.5,142C 210.957,141.586 211.291,141.086 211.5,140.5C 197.572,119.83 197.072,98.8296 210,77.5C 218.628,65.442 230.128,57.7754 244.5,54.5 Z M 254.5,69.5 C 277.804,72.137 290.804,85.137 293.5,108.5C 289.106,136.072 273.106,148.239 245.5,145C 222.337,136.171 213.504,119.671 219,95.5C 225.832,79.8487 237.665,71.182 254.5,69.5 Z"/>
  </g>
  <g>
    <path style="opacity: 0.949; fill: rgb(255, 255, 255);" d="M 73.5,252.5 C 105.63,252.463 120.797,268.463 119,300.5C 118.282,304.655 116.782,308.488 114.5,312C 134.227,325.944 144.727,345.11 146,369.5C 150.314,364.856 154.98,360.522 160,356.5C 159.242,351.864 158.242,347.197 157,342.5C 157.191,310.31 173.358,295.477 205.5,298C 229.402,305.94 239.235,322.44 235,347.5C 234.127,350.618 232.961,353.618 231.5,356.5C 240.366,363.537 247.866,371.87 254,381.5C 259.914,371.087 267.747,362.42 277.5,355.5C 269.25,336.006 272.917,319.173 288.5,305C 304.833,295 321.167,295 337.5,305C 353.554,319.853 356.887,337.187 347.5,357C 352.923,360.419 357.756,364.585 362,369.5C 362.837,344.316 373.67,324.816 394.5,311C 385.096,288.616 390.429,270.616 410.5,257C 430.48,248.454 447.647,252.288 462,268.5C 470.851,282.376 471.684,296.709 464.5,311.5C 470.125,316.624 475.625,321.958 481,327.5C 487.801,336.772 492.134,347.105 494,358.5C 494.667,375.5 494.667,392.5 494,409.5C 487.994,415.33 482.994,414.663 479,407.5C 478.929,390.123 478.262,372.789 477,355.5C 473.039,342.249 465.205,331.916 453.5,324.5C 437.059,335.394 420.893,335.06 405,323.5C 392.564,331.365 384.23,342.365 380,356.5C 378.703,388.461 378.037,420.461 378,452.5C 373.339,460.027 368.339,460.361 363,453.5C 362.667,438.833 362.333,424.167 362,409.5C 359.998,392.839 352.165,379.672 338.5,370C 337.5,369.333 336.5,369.333 335.5,370C 319.521,379.057 303.855,378.557 288.5,368.5C 275.201,376.638 266.701,388.305 263,403.5C 261.773,420.466 261.107,437.466 261,454.5C 255.225,460.025 250.225,459.358 246,452.5C 245.667,436.833 245.333,421.167 245,405.5C 242.1,389.692 233.767,377.692 220,369.5C 203.642,379.093 187.476,378.759 171.5,368.5C 157.54,377.091 149.04,389.425 146,405.5C 145.667,421.167 145.333,436.833 145,452.5C 140.394,459.987 135.394,460.321 130,453.5C 129.667,424.167 129.333,394.833 129,365.5C 127.099,347.693 118.599,334.026 103.5,324.5C 87.1243,335.261 70.9576,334.928 55,323.5C 42.0127,331.824 33.6794,343.491 30,358.5C 28.7561,375.462 28.0895,392.462 28,409.5C 21.9935,415.33 16.9935,414.663 13,407.5C 12.122,390.135 12.4553,372.802 14,355.5C 18.7124,336.724 28.879,321.724 44.5,310.5C 36.7311,292.238 39.7311,276.072 53.5,262C 59.6157,257.44 66.2823,254.273 73.5,252.5 Z M 75.5,268.5 C 95.6303,268.463 104.797,278.463 103,298.5C 99.1629,309.332 91.4962,315.332 80,316.5C 58.8873,311.94 52.2207,299.607 60,279.5C 63.9622,274.023 69.1289,270.356 75.5,268.5 Z M 424.5,268.5 C 438.925,267.462 448.425,273.795 453,287.5C 454.175,304.141 446.508,313.808 430,316.5C 410.542,312.903 403.209,301.569 408,282.5C 411.561,275.431 417.061,270.764 424.5,268.5 Z M 190.5,313.5 C 209.841,312.384 219.674,321.384 220,340.5C 213.811,359.177 201.644,364.677 183.5,357C 170.618,345.84 169.285,333.507 179.5,320C 182.933,317.289 186.6,315.123 190.5,313.5 Z M 306.5,313.5 C 327.645,312.478 337.478,322.478 336,343.5C 330.835,356.337 321.335,361.837 307.5,360C 289.738,352.386 285.238,339.886 294,322.5C 297.651,318.609 301.818,315.609 306.5,313.5 Z"/>
  </g>
</svg>