<svg width="37" height="30" viewBox="0 0 37 30" fill="none" xmlns="http://www.w3.org/2000/svg">
<path fill-rule="evenodd" clip-rule="evenodd" d="M0 28.3333C0 27.4129 0.746192 26.6667 1.66667 26.6667H35C35.9205 26.6667 36.6667 27.4129 36.6667 28.3333C36.6667 29.2538 35.9205 30 35 30H1.66667C0.746192 30 0 29.2538 0 28.3333Z" fill="white"/>
<path fill-rule="evenodd" clip-rule="evenodd" d="M0 15C0 14.0795 0.746192 13.3333 1.66667 13.3333H35C35.9205 13.3333 36.6667 14.0795 36.6667 15C36.6667 15.9205 35.9205 16.6667 35 16.6667H1.66667C0.746192 16.6667 0 15.9205 0 15Z" fill="white"/>
<path fill-rule="evenodd" clip-rule="evenodd" d="M0 1.66667C0 0.746192 0.746192 0 1.66667 0H35C35.9205 0 36.6667 0.746192 36.6667 1.66667C36.6667 2.58714 35.9205 3.33333 35 3.33333H1.66667C0.746192 3.33333 0 2.58714 0 1.66667Z" fill="white"/>
</svg>
