<?xml version="1.0" encoding="utf-8"?>
<svg xmlns="http://www.w3.org/2000/svg" version="1.1" width="512px" height="512px" style="shape-rendering:geometricPrecision; text-rendering:geometricPrecision; image-rendering:optimizeQuality; fill-rule:evenodd; clip-rule:evenodd">
  <g>
    <path style="opacity: 0.943; fill: rgb(255, 255, 255);" d="M 66.5,58.5 C 141.834,58.3333 217.167,58.5 292.5,59C 297.833,64 297.833,69 292.5,74C 291.167,74.3333 289.833,74.6667 288.5,75C 215.167,75.3333 141.833,75.6667 68.5,76C 55.7823,80.2639 48.949,89.0972 48,102.5C 47.6667,116.167 47.3333,129.833 47,143.5C 42,148.833 37,148.833 32,143.5C 31.0534,125.114 31.3867,106.781 33,88.5C 39.1746,72.8436 50.3413,62.8436 66.5,58.5 Z"/>
  </g>
  <g>
    <path style="opacity: 0.941; fill: rgb(255, 255, 255);" d="M 347.5,62.5 C 352.126,61.7004 355.96,63.0337 359,66.5C 359.5,102.498 359.667,138.498 359.5,174.5C 372.516,173.403 376.183,178.57 370.5,190C 366.974,191.337 363.308,191.837 359.5,191.5C 359.667,227.502 359.5,263.502 359,299.5C 355.229,303.788 350.729,304.621 345.5,302C 299.65,261.494 245.983,243.494 184.5,248C 191.813,282.397 198.813,316.897 205.5,351.5C 205.352,354.63 204.018,357.13 201.5,359C 179.833,359.667 158.167,359.667 136.5,359C 135.333,357.833 134.167,356.667 133,355.5C 125.049,319.577 117.549,283.577 110.5,247.5C 93.5256,245.194 84.5256,235.527 83.5,218.5C 65.2199,213.792 55.8865,201.959 55.5,183C 55.8865,164.041 65.2199,152.208 83.5,147.5C 83.7566,134.159 90.0899,124.992 102.5,120C 141.12,118.691 179.787,118.024 218.5,118C 268.098,114.186 311.098,95.6857 347.5,62.5 Z M 341.5,89.5 C 342.665,151.665 342.832,213.999 342,276.5C 299.707,244.46 251.874,229.127 198.5,230.5C 198.5,198.833 198.5,167.167 198.5,135.5C 248.628,136.722 294.294,123.222 335.5,95C 337.763,93.383 339.763,91.5497 341.5,89.5 Z M 109.5,135.5 C 133.5,135.5 157.5,135.5 181.5,135.5C 181.5,167.167 181.5,198.833 181.5,230.5C 156.435,230.972 131.435,230.472 106.5,229C 104.291,227.127 102.458,224.96 101,222.5C 100.773,217.103 100.106,211.769 99,206.5C 97.786,204.951 96.286,203.785 94.5,203C 78.5953,201.768 71.4286,193.268 73,177.5C 76.8407,167.824 84.0073,162.99 94.5,163C 96.286,162.215 97.786,161.049 99,159.5C 100.174,154.25 100.841,148.916 101,143.5C 103.098,139.897 105.932,137.23 109.5,135.5 Z M 127.5,247.5 C 140.833,247.5 154.167,247.5 167.5,247.5C 173.833,279.5 180.167,311.5 186.5,343.5C 173.5,343.5 160.5,343.5 147.5,343.5C 140.961,311.474 134.295,279.474 127.5,247.5 Z"/>
  </g>
  <g>
    <path style="opacity: 0.914; fill: rgb(255, 255, 255);" d="M 403.5,104.5 C 413.35,103.838 417.184,108.171 415,117.5C 409.5,123 404,128.5 398.5,134C 388.393,136.899 384.227,133.065 386,122.5C 392.036,116.631 397.87,110.631 403.5,104.5 Z"/>
  </g>
  <g>
    <path style="opacity: 0.968; fill: rgb(255, 255, 255);" d="M 36.5,218.5 C 40.8027,217.796 44.3027,219.13 47,222.5C 47.0354,268.861 47.7021,315.195 49,361.5C 53.2639,374.218 62.0972,381.051 75.5,382C 120.833,382.333 166.167,382.667 211.5,383C 225.955,398.958 240.621,414.791 255.5,430.5C 270.379,414.791 285.045,398.958 299.5,383C 347.195,382.966 394.861,382.299 442.5,381C 451.178,378.322 457.345,372.822 461,364.5C 461.966,359.066 463.299,353.732 465,348.5C 469.052,346.058 473.219,345.891 477.5,348C 481.605,369.277 473.938,384.943 454.5,395C 451.226,396.202 447.893,397.202 444.5,398C 398.833,398.333 353.167,398.667 307.5,399C 291.813,417.017 275.813,434.684 259.5,452C 255.171,453.151 251.338,452.318 248,449.5C 233.167,432.667 218.333,415.833 203.5,399C 157.833,398.667 112.167,398.333 66.5,398C 48.1031,393.936 36.6031,382.77 32,364.5C 31.3333,317.167 31.3333,269.833 32,222.5C 33.3968,220.93 34.8968,219.596 36.5,218.5 Z"/>
  </g>
  <g>
    <path style="opacity: 0.913; fill: rgb(255, 255, 255);" d="M 391.5,230.5 C 393.927,230.523 396.26,231.023 398.5,232C 403.667,237.167 408.833,242.333 414,247.5C 417.632,257.536 414.132,262.036 403.5,261C 397.667,255.167 391.833,249.333 386,243.5C 384.099,237.343 385.932,233.01 391.5,230.5 Z"/>
  </g>
</svg>