<?xml version="1.0" encoding="utf-8"?>
<svg xmlns="http://www.w3.org/2000/svg" version="1.1" width="512px" height="512px" style="shape-rendering:geometricPrecision; text-rendering:geometricPrecision; image-rendering:optimizeQuality; fill-rule:evenodd; clip-rule:evenodd">
  <g>
    <path style="opacity: 0.972; fill: rgb(255, 255, 255);" d="M 511.5,435.5 C 511.5,445.833 511.5,456.167 511.5,466.5C 340.833,466.5 170.167,466.5 -0.5,466.5C -0.5,456.167 -0.5,445.833 -0.5,435.5C 9.5,435.5 19.5,435.5 29.5,435.5C 29.5,410.5 29.5,385.5 29.5,360.5C 44.5,360.5 59.5,360.5 74.5,360.5C 74.3334,337.498 74.5,314.498 75,291.5C 107.915,272.626 140.748,253.626 173.5,234.5C 168.938,224.647 166.105,214.314 165,203.5C 164.5,160.835 164.333,118.168 164.5,75.5C 149.5,75.5 134.5,75.5 119.5,75.5C 119.5,65.1667 119.5,54.8333 119.5,44.5C 215.167,44.5 310.833,44.5 406.5,44.5C 406.5,79.8333 406.5,115.167 406.5,150.5C 396.167,150.5 385.833,150.5 375.5,150.5C 375.5,125.5 375.5,100.5 375.5,75.5C 365.833,75.5 356.167,75.5 346.5,75.5C 346.667,118.168 346.5,160.835 346,203.5C 344.895,214.314 342.062,224.647 337.5,234.5C 370.252,253.626 403.085,272.626 436,291.5C 436.5,314.498 436.667,337.498 436.5,360.5C 451.5,360.5 466.5,360.5 481.5,360.5C 481.5,385.5 481.5,410.5 481.5,435.5C 491.5,435.5 501.5,435.5 511.5,435.5 Z M 195.5,75.5 C 235.5,75.5 275.5,75.5 315.5,75.5C 315.5,90.1667 315.5,104.833 315.5,119.5C 275.5,119.5 235.5,119.5 195.5,119.5C 195.5,104.833 195.5,90.1667 195.5,75.5 Z M 195.5,150.5 C 235.5,150.5 275.5,150.5 315.5,150.5C 315.667,167.17 315.5,183.837 315,200.5C 310.997,227.17 296.164,244.67 270.5,253C 242.247,258.284 220.081,249.117 204,225.5C 199.319,217.457 196.652,208.79 196,199.5C 195.5,183.17 195.333,166.837 195.5,150.5 Z M 190.5,260.5 C 220.455,286.272 254.122,292.439 291.5,279C 302.034,274.572 311.367,268.405 319.5,260.5C 328.082,265.374 336.582,270.374 345,275.5C 345.5,303.831 345.667,332.165 345.5,360.5C 308.17,357.177 278.17,370.177 255.5,399.5C 232.83,370.177 202.83,357.177 165.5,360.5C 165.333,332.165 165.5,303.831 166,275.5C 174.314,270.6 182.481,265.6 190.5,260.5 Z M 133.5,293.5 C 134.497,315.66 134.831,337.994 134.5,360.5C 124.833,360.5 115.167,360.5 105.5,360.5C 105.333,343.497 105.5,326.497 106,309.5C 115.336,304.303 124.502,298.97 133.5,293.5 Z M 376.5,293.5 C 386.111,298.605 395.611,303.938 405,309.5C 405.5,326.497 405.667,343.497 405.5,360.5C 395.833,360.5 386.167,360.5 376.5,360.5C 376.5,338.167 376.5,315.833 376.5,293.5 Z M 60.5,391.5 C 104.539,391.026 148.539,391.526 192.5,393C 215.109,398.629 230.109,412.463 237.5,434.5C 178.504,435.5 119.504,435.833 60.5,435.5C 60.5,420.833 60.5,406.167 60.5,391.5 Z M 323.5,391.5 C 365.833,391.5 408.167,391.5 450.5,391.5C 450.5,406.167 450.5,420.833 450.5,435.5C 391.496,435.833 332.496,435.5 273.5,434.5C 282.161,410.838 298.827,396.505 323.5,391.5 Z"/>
  </g>
</svg>