<?xml version="1.0" encoding="utf-8"?>
<svg xmlns="http://www.w3.org/2000/svg" version="1.1" width="512px" height="512px" style="shape-rendering:geometricPrecision; text-rendering:geometricPrecision; image-rendering:optimizeQuality; fill-rule:evenodd; clip-rule:evenodd">
  <g>
    <path style="opacity: 0.969; fill: rgb(255, 255, 255);" d="M 511.5 222.5 C 511.5 245.167 511.5 267.833 511.5 290.5 C 509.076 320.808 505.576 351.141 501 381.5 C 492.718 405.779 475.885 419.946 450.5 424 C 353.618 432.126 256.618 434.126 159.5 430 C 126.809 428.391 94.143 426.391 61.5 424 C 35.577 420.407 18.41 406.241 10 381.5 C 5.301 351.155 1.801 320.822 -0.5 290.5 C -0.5 267.833 -0.5 245.167 -0.5 222.5 C 1.675 191.102 5.509 159.769 11 128.5 C 18.649 107.182 33.482 94.015 55.5 89 C 189.883 77.353 324.217 77.686 458.5 90 C 478.666 95.499 492.499 107.999 500 127.5 C 505.419 159.117 509.252 190.784 511.5 222.5 Z M 201.5 113.5 C 284.314 112.101 366.981 114.934 449.5 122 C 459.156 124.323 465.656 130.157 469 139.5 C 481.667 217.169 481.667 294.836 469 372.5 C 465.224 382.609 458.057 388.776 447.5 391 C 370.958 397.371 294.291 400.038 217.5 399 C 166.098 397.663 114.765 394.996 63.5 391 C 52.943 388.776 45.776 382.609 42 372.5 C 29.333 295.166 29.333 217.832 42 140.5 C 44.793 131.376 50.626 125.209 59.5 122 C 106.946 118.395 154.279 115.562 201.5 113.5 Z"/>
  </g>
  <g>
    <path style="opacity: 0.973; fill: rgb(255, 255, 255);" d="M 215.5,159.5 C 223.832,158.684 231.832,159.851 239.5,163C 272.167,184.667 304.833,206.333 337.5,228C 353.785,241.076 356.951,256.909 347,275.5C 344.5,278 342,280.5 339.5,283C 305.175,306.164 270.508,328.831 235.5,351C 219.315,355.05 206.148,350.55 196,337.5C 194.275,334.326 192.942,330.993 192,327.5C 191.333,279.5 191.333,231.5 192,183.5C 195.358,170.977 203.191,162.977 215.5,159.5 Z M 223.5,192.5 C 223.167,234.839 223.5,277.172 224.5,319.5C 256.167,298.333 287.833,277.167 319.5,256C 287.618,234.611 255.618,213.444 223.5,192.5 Z"/>
  </g>
</svg>