<svg width="40" height="40" viewBox="0 0 40 40" fill="none" xmlns="http://www.w3.org/2000/svg">
<path d="M6.69472 29.7349C7.2207 30.2624 7.48408 30.9969 7.41308 31.7384C7.25399 33.4002 6.88754 35.1296 6.41693 36.7362C9.90415 35.9302 12.0339 34.9953 13.002 34.5047C13.5516 34.2262 14.1845 34.1605 14.7796 34.32C16.4242 34.761 18.1769 35 20 35C29.989 35 37.5 27.9811 37.5 20C37.5 12.0189 29.989 5 20 5C10.011 5 2.5 12.0189 2.5 20C2.5 23.6702 4.04326 27.076 6.69472 29.7349ZM5.46224 39.4973C5.4454 39.5006 5.42854 39.504 5.41165 39.5073C5.18208 39.5526 4.94805 39.5971 4.70955 39.6408C4.37499 39.7021 4.03161 39.7617 3.6793 39.8194C3.18176 39.9008 2.80091 39.3803 2.99745 38.916C3.12585 38.6127 3.25243 38.2948 3.37575 37.9652C3.45409 37.7558 3.53112 37.5416 3.60647 37.3235C3.60971 37.3141 3.61296 37.3047 3.6162 37.2953C4.23556 35.496 4.73991 33.4278 4.92446 31.5002C1.85765 28.4247 0 24.4022 0 20C0 10.335 8.95431 2.5 20 2.5C31.0457 2.5 40 10.335 40 20C40 29.665 31.0457 37.5 20 37.5C17.9581 37.5 15.9877 37.2323 14.1321 36.7347C12.8334 37.3928 10.0358 38.5908 5.46224 39.4973Z" fill="#212529"/>
<path d="M10 13.75C10 13.0596 10.5596 12.5 11.25 12.5H28.75C29.4404 12.5 30 13.0596 30 13.75C30 14.4404 29.4404 15 28.75 15H11.25C10.5596 15 10 14.4404 10 13.75ZM10 20C10 19.3096 10.5596 18.75 11.25 18.75H28.75C29.4404 18.75 30 19.3096 30 20C30 20.6904 29.4404 21.25 28.75 21.25H11.25C10.5596 21.25 10 20.6904 10 20ZM10 26.25C10 25.5596 10.5596 25 11.25 25H21.25C21.9404 25 22.5 25.5596 22.5 26.25C22.5 26.9404 21.9404 27.5 21.25 27.5H11.25C10.5596 27.5 10 26.9404 10 26.25Z" fill="#212529"/>
</svg>
