<?xml version="1.0" encoding="utf-8"?>
<svg xmlns="http://www.w3.org/2000/svg" version="1.1" width="512px" height="512px" style="shape-rendering:geometricPrecision; text-rendering:geometricPrecision; image-rendering:optimizeQuality; fill-rule:evenodd; clip-rule:evenodd">
  <g>
    <path style="opacity: 0.979; fill: rgb(255, 255, 255);" d="M 163.5 -0.5 C 225.167 -0.5 286.833 -0.5 348.5 -0.5 C 369.672 -0.034 390.672 2.8 411.5 8 C 461.111 23.944 492.611 57.111 506 107.5 C 508.363 118.896 510.197 130.23 511.5 141.5 C 511.5 216.5 511.5 291.5 511.5 366.5 C 510.058 397.588 500.892 426.255 484 452.5 C 458.166 486.009 423.999 504.843 381.5 509 C 370.673 509.77 360.006 510.604 349.5 511.5 C 287.5 511.5 225.5 511.5 163.5 511.5 C 131.361 511.77 100.694 504.937 71.5 491 C 27.593 463.645 4.426 423.812 2 371.5 C 1.099 348.008 0.266 324.675 -0.5 301.5 C -0.5 270.833 -0.5 240.167 -0.5 209.5 C 0.277 186.992 1.11 164.325 2 141.5 C 3.376 95.274 21.876 57.774 57.5 29 C 75.835 16.006 96.168 7.673 118.5 4 C 133.572 1.677 148.572 0.177 163.5 -0.5 Z M 180.5 46.5 C 231.168 46.333 281.834 46.5 332.5 47 C 348.888 47.169 365.221 48.169 381.5 50 C 421.448 55.291 447.281 77.124 459 115.5 C 461.784 125.651 463.45 135.984 464 146.5 C 466 219.5 466 292.5 464 365.5 C 463.687 402.313 448.187 430.48 417.5 450 C 395.328 460.218 371.995 464.884 347.5 464 C 280.158 465.82 212.825 465.487 145.5 463 C 89.555 459.385 57.722 429.885 50 374.5 C 49.044 362.517 48.378 350.517 48 338.5 C 47.333 283.167 47.333 227.833 48 172.5 C 47.2 148.1 50.866 124.433 59 101.5 C 72.78 73.176 95.28 56.343 126.5 51 C 144.571 48.504 162.571 47.004 180.5 46.5 Z"/>
  </g>
  <g>
    <path style="opacity: 0.962; fill: rgb(255, 255, 255);" d="M 388.5,87.5 C 412.307,87.8064 424.14,99.8064 424,123.5C 418.973,143.496 406.139,151.996 385.5,149C 367.053,142.611 359.553,129.778 363,110.5C 367.004,97.6548 375.504,89.9881 388.5,87.5 Z"/>
  </g>
  <g>
    <path style="opacity: 0.975; fill: rgb(255, 255, 255);" d="M 245.5 123.5 C 299.137 121.733 340.637 143.066 370 187.5 C 398.035 241.118 394.035 292.118 358 340.5 C 320.843 380.994 275.343 395.161 221.5 383 C 165.02 364.85 132.853 326.35 125 267.5 C 121.915 213.168 143.082 171.335 188.5 142 C 206.359 131.879 225.359 125.712 245.5 123.5 Z M 250.5 170.5 C 221.852 173.646 199.686 187.313 184 211.5 C 163.022 252.662 165.06 294.137 202.5 321 C 238.476 346.813 274.246 348.364 306.5 324 C 335.362 302.198 345.547 272.199 339 236.5 C 325.665 193.016 296.165 171.016 250.5 170.5 Z"/>
  </g>
</svg>