<svg width="40" height="40" viewBox="0 0 40 40" fill="none" xmlns="http://www.w3.org/2000/svg">
<path d="M10 10C5.85786 10 2.5 13.3579 2.5 17.5V32.5H17.5V17.5C17.5 13.3579 14.1421 10 10 10ZM10 7.5H30C35.5228 7.5 40 11.9772 40 17.5V32.5C40 33.8807 38.8807 35 37.5 35H2.5C1.11929 35 0 33.8807 0 32.5V17.5C0 11.9772 4.47715 7.5 10 7.5ZM16.6146 10C18.6906 11.8324 20 14.5133 20 17.5V32.5H37.5V17.5C37.5 13.3579 34.1421 10 30 10H16.6146Z" fill="#212529"/>
<path d="M29.4822 21.25H22.5V18.75H35C35.6904 18.75 36.25 19.3096 36.25 20V22.5C36.25 23.1904 35.6904 23.75 35 23.75H32.5C32.1685 23.75 31.8505 23.6183 31.6161 23.3839L29.4822 21.25Z" fill="#212529"/>
<path d="M12.5 17.5C12.5 18.8807 11.3807 17.5 10 17.5C8.61929 17.5 7.5 18.8807 7.5 17.5C7.5 16.1193 8.61929 15 10 15C11.3807 15 12.5 16.1193 12.5 17.5Z" fill="#212529"/>
</svg>
