<svg width="30" height="30" viewBox="0 0 30 30" fill="none" xmlns="http://www.w3.org/2000/svg">
<path opacity="0.986" fill-rule="evenodd" clip-rule="evenodd" d="M30 26.5898C30 26.9842 30 27.3785 30 27.773C29.366 29.612 28.0965 30.3121 26.1914 29.8731C25.9044 29.7874 25.631 29.6691 25.3711 29.5182C21.8863 26.059 18.4196 22.5783 14.9707 19.0764C11.5218 22.5783 8.05506 26.059 4.57031 29.5182C3.82111 29.9391 3.02033 30.0771 2.16797 29.9323C1.0119 29.6819 0.28924 28.9819 0 27.8321C0 27.4377 0 27.0433 0 26.6489C0.139072 26.0923 0.402744 25.5992 0.791016 25.1699C4.16016 21.7682 7.5293 18.3665 10.8984 14.9647C7.43004 11.4825 3.98276 7.98222 0.556641 4.46377C-0.237971 2.85424 0.0647629 1.50342 1.46484 0.411287C2.55797 -0.174046 3.6322 -0.134606 4.6875 0.529607C8.13316 3.94941 11.5609 7.39055 14.9707 10.8531C18.361 7.41031 21.7692 3.98886 25.1953 0.588768C25.8912 0.122375 26.6529 -0.035386 27.4805 0.115485C29.2308 0.661003 29.9632 1.85407 29.6777 3.69469C29.5685 4.05319 29.4123 4.38843 29.209 4.70041C25.8293 8.10296 22.4602 11.5145 19.1016 14.9352C22.4813 18.3969 25.8895 21.8282 29.3262 25.2291C29.6465 25.6392 29.8711 26.0928 30 26.5898Z" fill="white"/>
</svg>
