<?xml version="1.0" encoding="utf-8"?>
<svg xmlns="http://www.w3.org/2000/svg" version="1.1" width="512px" height="512px" style="shape-rendering:geometricPrecision; text-rendering:geometricPrecision; image-rendering:optimizeQuality; fill-rule:evenodd; clip-rule:evenodd">
  <g>
    <path style="opacity: 0.972; fill: rgb(255, 255, 255);" d="M 370.5,511.5 C 313.833,511.5 257.167,511.5 200.5,511.5C 198.866,510.028 197.366,508.362 196,506.5C 195.667,476.167 195.333,445.833 195,415.5C 194.718,405.897 190.885,398.063 183.5,392C 134.51,353.84 112.343,303.673 117,241.5C 120.098,230.965 125.931,222.298 134.5,215.5C 135.333,193.841 135.833,172.174 136,150.5C 143.673,127.069 159.84,116.903 184.5,120C 192.367,122.266 199.367,126.1 205.5,131.5C 219.665,118.87 235.665,116.036 253.5,123C 257.639,125.639 261.639,128.472 265.5,131.5C 279.678,118.87 295.678,116.037 313.5,123C 323.142,127.974 329.975,135.474 334,145.5C 337.794,142.899 341.961,141.066 346.5,140C 371.16,136.903 387.327,147.069 395,170.5C 395.667,220.167 395.667,269.833 395,319.5C 392.756,352.965 386.423,385.632 376,417.5C 375.667,447.167 375.333,476.833 375,506.5C 373.634,508.362 372.134,510.028 370.5,511.5 Z M 169.5,140.5 C 181.046,138.687 189.212,143.021 194,153.5C 195.412,170.791 195.912,188.125 195.5,205.5C 182.167,205.5 168.833,205.5 155.5,205.5C 155.088,188.125 155.588,170.791 157,153.5C 159.353,147.315 163.52,142.982 169.5,140.5 Z M 229.5,140.5 C 241.046,138.687 249.212,143.021 254,153.5C 255.412,170.791 255.912,188.125 255.5,205.5C 242.167,205.5 228.833,205.5 215.5,205.5C 215.088,188.125 215.588,170.791 217,153.5C 219.353,147.315 223.52,142.982 229.5,140.5 Z M 289.5,140.5 C 304.351,138.494 312.851,144.828 315,159.5C 315.667,181.5 315.667,203.5 315,225.5C 312.509,239.837 304.009,246.004 289.5,244C 281.469,240.449 276.969,234.282 276,225.5C 275.333,203.5 275.333,181.5 276,159.5C 277.088,150.629 281.588,144.296 289.5,140.5 Z M 349.5,160.5 C 364.351,158.494 372.851,164.828 375,179.5C 375.667,201.5 375.667,223.5 375,245.5C 372.509,259.837 364.009,266.004 349.5,264C 341.469,260.449 336.969,254.282 336,245.5C 335.333,223.5 335.333,201.5 336,179.5C 337.088,170.629 341.588,164.296 349.5,160.5 Z M 165.5,225.5 C 194.833,225.5 224.167,225.5 253.5,225.5C 248.306,246.194 235.306,259.027 214.5,264C 203.195,265.092 191.862,265.759 180.5,266C 175.725,269.655 174.225,274.488 176,280.5C 177.167,282.333 178.667,283.833 180.5,285C 209.405,281.842 227.905,294.009 236,321.5C 239.66,325.367 244.16,326.534 249.5,325C 250.931,324.535 252.097,323.701 253,322.5C 255.006,312.139 253.006,302.472 247,293.5C 243.917,288.412 240.083,283.912 235.5,280C 247.532,273.468 257.532,264.635 265.5,253.5C 276.547,263.68 289.547,267.513 304.5,265C 309.039,263.934 313.206,262.101 317,259.5C 329.541,283.674 348.708,291.007 374.5,281.5C 375.945,325.554 369.778,368.554 356,410.5C 355.501,415.489 355.334,420.489 355.5,425.5C 308.833,425.5 262.167,425.5 215.5,425.5C 217.63,410.021 214.13,396.021 205,383.5C 197.795,376.627 190.295,370.127 182.5,364C 149.567,331.3 134.733,291.8 138,245.5C 143.413,233.577 152.579,226.91 165.5,225.5 Z M 215.5,445.5 C 262.167,445.5 308.833,445.5 355.5,445.5C 355.5,460.833 355.5,476.167 355.5,491.5C 308.833,491.5 262.167,491.5 215.5,491.5C 215.5,476.167 215.5,460.833 215.5,445.5 Z"/>
  </g>
</svg>