<?xml version="1.0" encoding="utf-8"?>
<svg xmlns="http://www.w3.org/2000/svg" version="1.1" width="512px" height="512px" style="shape-rendering:geometricPrecision; text-rendering:geometricPrecision; image-rendering:optimizeQuality; fill-rule:evenodd; clip-rule:evenodd">
  <g>
    <path style="opacity: 0.837; fill: rgb(255, 255, 255);" d="M 109.5,95.5 C 118.491,94.9869 121.157,98.8202 117.5,107C 109.246,110.081 105.746,107.248 107,98.5C 107.698,97.3094 108.531,96.3094 109.5,95.5 Z"/>
  </g>
  <g>
    <path style="opacity: 0.825; fill: rgb(255, 255, 255);" d="M 232.5,95.5 C 238.077,94.4442 241.411,96.6109 242.5,102C 240.222,108.687 236.056,110.187 230,106.5C 227.553,101.959 228.387,98.2924 232.5,95.5 Z"/>
  </g>
  <g>
    <path style="opacity: 0.837; fill: rgb(255, 255, 255);" d="M 294.5,95.5 C 303.805,94.9514 306.472,98.7848 302.5,107C 294.243,109.96 290.743,107.127 292,98.5C 293.045,97.6266 293.878,96.6266 294.5,95.5 Z"/>
  </g>
  <g>
    <path style="opacity: 0.9; fill: rgb(255, 255, 255);" d="M 185.5,100.5 C 194.485,99.9794 197.652,103.979 195,112.5C 193.352,113.717 191.519,114.55 189.5,115C 195.524,114.03 199.024,116.53 200,122.5C 201.455,129.444 201.788,136.444 201,143.5C 200.29,144.973 199.124,145.64 197.5,145.5C 197.657,146.873 197.49,148.207 197,149.5C 188.528,156.519 187.028,164.686 192.5,174C 189.833,174.667 187.167,174.667 184.5,174C 183.484,173.481 182.818,172.647 182.5,171.5C 181.524,162.862 180.857,154.195 180.5,145.5C 179.178,145.67 178.011,145.337 177,144.5C 175.92,135.674 176.587,127.007 179,118.5C 181.228,116.032 184.062,114.865 187.5,115C 181.552,112.567 180.052,108.4 183,102.5C 183.995,101.934 184.828,101.267 185.5,100.5 Z"/>
  </g>
  <g>
    <path style="opacity: 0.902; fill: rgb(255, 255, 255);" d="M 342.5,100.5 C 353.818,99.99 356.485,104.49 350.5,114C 349.167,114.333 347.833,114.667 346.5,115C 353.33,114.494 357.163,117.661 358,124.5C 358.667,131.167 358.667,137.833 358,144.5C 356.989,145.337 355.822,145.67 354.5,145.5C 354.5,146.5 354.5,147.5 354.5,148.5C 347.824,148.673 342.824,151.673 339.5,157.5C 338.724,154.014 338.058,150.514 337.5,147C 336.465,145.726 335.298,144.56 334,143.5C 333.076,135.359 333.743,127.359 336,119.5C 336.465,118.069 337.299,116.903 338.5,116C 340.833,115.667 343.167,115.333 345.5,115C 337.613,111.617 336.613,106.784 342.5,100.5 Z"/>
  </g>
  <g>
    <path style="opacity: 0.927; fill: rgb(255, 255, 255);" d="M 105.5,109.5 C 110.511,109.334 115.511,109.501 120.5,110C 122.914,114.843 123.914,120.01 123.5,125.5C 123.333,128.5 123.167,131.5 123,134.5C 121.415,135.376 120.415,136.709 120,138.5C 119.911,145.94 119.078,153.273 117.5,160.5C 113.738,162.09 110.238,161.757 107,159.5C 106.066,151.524 105.566,143.524 105.5,135.5C 104.178,135.67 103.011,135.337 102,134.5C 101.212,127.444 101.545,120.444 103,113.5C 103.662,112.016 104.496,110.683 105.5,109.5 Z"/>
  </g>
  <g>
    <path style="opacity: 0.93; fill: rgb(255, 255, 255);" d="M 227.5,109.5 C 232.875,109.172 238.208,109.505 243.5,110.5C 246.379,118.238 247.212,126.238 246,134.5C 244.989,135.337 243.822,135.67 242.5,135.5C 242.598,143.536 242.098,151.536 241,159.5C 237.333,162.167 233.667,162.167 230,159.5C 228.96,151.869 228.294,144.202 228,136.5C 227,135.833 226,135.167 225,134.5C 223.772,125.894 224.605,117.561 227.5,109.5 Z"/>
  </g>
  <g>
    <path style="opacity: 0.908; fill: rgb(255, 255, 255);" d="M 290.5,109.5 C 295.511,109.334 300.511,109.501 305.5,110C 307.196,112.587 308.196,115.421 308.5,118.5C 318.356,116.356 322.856,120.356 322,130.5C 320.523,134.744 317.523,137.077 313,137.5C 310.546,136.802 308.213,135.802 306,134.5C 305.682,136.061 304.849,137.228 303.5,138C 310.167,138.333 316.833,138.667 323.5,139C 326.945,144.265 328.778,150.098 329,156.5C 329.667,161.833 329.667,167.167 329,172.5C 328.691,173.766 328.191,174.933 327.5,176C 322.781,173.997 317.781,172.497 312.5,171.5C 307.458,171.402 303.125,173.068 299.5,176.5C 298.914,176.291 298.414,175.957 298,175.5C 297.005,170.547 296.338,165.547 296,160.5C 293.91,161.791 292.576,161.124 292,158.5C 291.478,150.83 290.978,143.163 290.5,135.5C 288.876,135.64 287.71,134.973 287,133.5C 285.759,125.08 286.925,117.08 290.5,109.5 Z"/>
  </g>
  <g>
    <path style="opacity: 0.86; fill: rgb(255, 255, 255);" d="M 389.5,110.5 C 396.967,111.131 400.134,115.131 399,122.5C 396.459,127.069 392.625,128.569 387.5,127C 382.465,123.987 381.298,119.82 384,114.5C 385.5,112.531 387.333,111.198 389.5,110.5 Z"/>
  </g>
  <g>
    <path style="opacity: 0.887; fill: rgb(255, 255, 255);" d="M 471.5,110.5 C 479.318,111.454 482.152,115.787 480,123.5C 475,128.833 470,128.833 465,123.5C 462.998,116.835 465.165,112.501 471.5,110.5 Z"/>
  </g>
  <g>
    <path style="opacity: 0.887; fill: rgb(255, 255, 255);" d="M 152.5,117.5 C 161.528,118.027 165.028,122.694 163,131.5C 160.103,136.155 155.937,137.655 150.5,136C 145.237,132.787 143.737,128.287 146,122.5C 147.805,120.174 149.972,118.508 152.5,117.5 Z"/>
  </g>
  <g>
    <path style="opacity: 0.926; fill: rgb(255, 255, 255);" d="M 382.5,128.5 C 388.176,128.334 393.843,128.501 399.5,129C 400.333,129.833 401.167,130.667 402,131.5C 405.698,141.614 406.198,151.781 403.5,162C 402.552,162.483 401.552,162.649 400.5,162.5C 400.165,169.528 399.498,176.528 398.5,183.5C 393.683,180.228 388.349,178.561 382.5,178.5C 382.167,173.167 381.833,167.833 381.5,162.5C 379.089,162.863 377.589,161.863 377,159.5C 376.253,152.118 376.586,144.785 378,137.5C 378.656,134.004 380.156,131.004 382.5,128.5 Z"/>
  </g>
  <g>
    <path style="opacity: 0.911; fill: rgb(255, 255, 255);" d="M 485.5,136.5 C 484.833,136.5 484.5,136.833 484.5,137.5C 483.662,137.842 483.328,138.508 483.5,139.5C 480.833,142.833 480.833,146.167 483.5,149.5C 483.328,150.492 483.662,151.158 484.5,151.5C 484.5,152.167 484.833,152.5 485.5,152.5C 485.5,153.167 485.833,153.5 486.5,153.5C 484.993,154.975 483.327,156.309 481.5,157.5C 480.833,157.5 480.5,157.833 480.5,158.5C 479.833,158.5 479.5,158.833 479.5,159.5C 478.662,159.842 478.328,160.508 478.5,161.5C 477.596,162.209 477.263,163.209 477.5,164.5C 476.596,165.209 476.263,166.209 476.5,167.5C 474.898,173.592 473.898,179.925 473.5,186.5C 474.162,189.468 474.495,192.468 474.5,195.5C 472.143,195.663 469.81,195.497 467.5,195C 466.572,194.612 465.905,193.945 465.5,193C 464.194,182.887 463.528,172.721 463.5,162.5C 462.07,162.579 460.736,162.246 459.5,161.5C 458.336,154.524 458.169,147.524 459,140.5C 459.126,135.757 460.96,131.924 464.5,129C 469.833,128.333 475.167,128.333 480.5,129C 483.278,130.713 484.945,133.213 485.5,136.5 Z"/>
  </g>
  <g>
    <path style="opacity: 0.882; fill: rgb(255, 255, 255);" d="M 14.5,133.5 C 22.5897,132.872 27.2563,136.539 28.5,144.5C 27.7669,151.4 23.9336,155.066 17,155.5C 7.9567,153.082 4.9567,147.415 8,138.5C 9.96514,136.45 12.1318,134.783 14.5,133.5 Z"/>
  </g>
  <g>
    <path style="opacity: 0.877; fill: rgb(255, 255, 255);" d="M 65.5,133.5 C 77.6959,134.233 81.5292,140.233 77,151.5C 69.0685,157.679 62.7352,156.345 58,147.5C 57.1102,140.943 59.6102,136.276 65.5,133.5 Z"/>
  </g>
  <g>
    <path style="opacity: 0.898; fill: rgb(255, 255, 255);" d="M 261.5,133.5 C 272.7,134.199 276.534,139.865 273,150.5C 267,157.167 261,157.167 255,150.5C 251.657,142.544 253.823,136.877 261.5,133.5 Z"/>
  </g>
  <g>
    <path style="opacity: 0.882; fill: rgb(255, 255, 255);" d="M 486.5,153.5 C 485.833,153.5 485.5,153.167 485.5,152.5C 484.833,152.5 484.5,152.167 484.5,151.5C 484.672,150.508 484.338,149.842 483.5,149.5C 482.167,146.167 482.167,142.833 483.5,139.5C 484.338,139.158 484.672,138.492 484.5,137.5C 485.167,137.5 485.5,137.167 485.5,136.5C 491.885,132.091 497.718,132.758 503,138.5C 505.62,152.379 500.12,157.379 486.5,153.5 Z"/>
  </g>
  <g>
    <path style="opacity: 0.937; fill: rgb(255, 255, 255);" d="M 144.5,138.5 C 151.175,138.334 157.842,138.5 164.5,139C 167.686,142.879 169.52,147.379 170,152.5C 170.667,159.833 170.667,167.167 170,174.5C 168.867,176.211 167.367,176.711 165.5,176C 157.401,169.901 149.401,170.068 141.5,176.5C 140.522,176.023 139.689,175.357 139,174.5C 137.945,164.032 138.612,153.699 141,143.5C 141.997,141.677 143.164,140.01 144.5,138.5 Z"/>
  </g>
  <g>
    <path style="opacity: 0.9; fill: rgb(255, 255, 255);" d="M 428.5,141.5 C 441.574,142.654 445.741,149.32 441,161.5C 435.379,167.223 429.213,167.89 422.5,163.5C 415.8,153.704 417.8,146.371 428.5,141.5 Z"/>
  </g>
  <g>
    <path style="opacity: 0.915; fill: rgb(255, 255, 255);" d="M 200.5,150.5 C 214.078,149.573 219.744,155.74 217.5,169C 214.046,177.044 208.046,179.711 199.5,177C 191.933,172.903 189.433,166.736 192,158.5C 194.074,154.923 196.907,152.256 200.5,150.5 Z"/>
  </g>
  <g>
    <path style="opacity: 0.918; fill: rgb(255, 255, 255);" d="M 349.5,150.5 C 365.291,150.425 370.457,157.758 365,172.5C 360.509,177.259 355.009,178.759 348.5,177C 340.068,171.688 338.235,164.522 343,155.5C 344.965,153.45 347.132,151.783 349.5,150.5 Z"/>
  </g>
  <g>
    <path style="opacity: 0.953; fill: rgb(255, 255, 255);" d="M -0.5,198.5 C -0.5,189.5 -0.5,180.5 -0.5,171.5C 0.471604,167.432 1.9716,163.432 4,159.5C 4.90252,158.299 6.06919,157.465 7.5,157C 14.9402,156.072 22.2735,156.406 29.5,158C 31.7611,160.772 33.2611,163.938 34,167.5C 35.4981,177.455 35.8314,187.455 35,197.5C 33.5993,199.192 31.7659,199.859 29.5,199.5C 28.7334,212.5 27.9,225.5 27,238.5C 26.5348,239.931 25.7014,241.097 24.5,242C 19.8333,242.667 15.1667,242.667 10.5,242C 9.66667,241.167 8.83333,240.333 8,239.5C 6.83441,226.184 6.00108,212.851 5.5,199.5C 3.3792,199.675 1.3792,199.341 -0.5,198.5 Z"/>
  </g>
  <g>
    <path style="opacity: 0.94; fill: rgb(255, 255, 255);" d="M 58.5,156.5 C 65.9472,156.071 73.2806,156.571 80.5,158C 85.1271,165.127 86.9604,172.961 86,181.5C 75.6858,189.29 73.8525,198.79 80.5,210C 79.8803,212.473 79.2136,214.973 78.5,217.5C 76.2466,218.253 74.4133,219.586 73,221.5C 69.4112,227.767 66.9112,234.434 65.5,241.5C 62.2471,243.112 60.0804,242.112 59,238.5C 57.9589,225.509 57.1256,212.509 56.5,199.5C 54.5328,199.739 52.6995,199.406 51,198.5C 50.3333,189.833 50.3333,181.167 51,172.5C 51.5192,166.049 54.0192,160.716 58.5,156.5 Z"/>
  </g>
  <g>
    <path style="opacity: 0.942; fill: rgb(255, 255, 255);" d="M 253.5,156.5 C 260.508,156.334 267.508,156.5 274.5,157C 278.357,160.212 280.524,164.379 281,169.5C 282.819,179.203 282.819,188.87 281,198.5C 279.004,198.996 277.337,199.996 276,201.5C 275.331,214.198 274.331,226.864 273,239.5C 272.626,240.416 272.126,241.25 271.5,242C 269.527,242.495 267.527,242.662 265.5,242.5C 266.656,231.478 262.489,223.145 253,217.5C 252.641,211.477 252.141,205.477 251.5,199.5C 248.762,200.035 246.928,199.035 246,196.5C 244.226,183.332 245.893,170.666 251,158.5C 251.995,157.934 252.828,157.267 253.5,156.5 Z"/>
  </g>
  <g>
    <path style="opacity: 0.953; fill: rgb(255, 255, 255);" d="M 511.5,171.5 C 511.5,180.5 511.5,189.5 511.5,198.5C 509.621,199.341 507.621,199.675 505.5,199.5C 504.999,212.851 504.166,226.184 503,239.5C 500.427,242.028 497.261,243.028 493.5,242.5C 491.167,242.333 488.833,242.167 486.5,242C 485.299,241.097 484.465,239.931 484,238.5C 483.1,225.5 482.267,212.5 481.5,199.5C 479.234,199.859 477.401,199.192 476,197.5C 475.334,187.481 475.501,177.481 476.5,167.5C 477.404,166.791 477.737,165.791 477.5,164.5C 478.404,163.791 478.737,162.791 478.5,161.5C 479.338,161.158 479.672,160.492 479.5,159.5C 480.167,159.5 480.5,159.167 480.5,158.5C 481.167,158.5 481.5,158.167 481.5,157.5C 488.784,156.403 496.118,156.237 503.5,157C 504.931,157.465 506.097,158.299 507,159.5C 509.028,163.432 510.528,167.432 511.5,171.5 Z"/>
  </g>
  <g>
    <path style="opacity: 0.954; fill: rgb(255, 255, 255);" d="M 418.5,168.5 C 426.84,168.334 435.173,168.5 443.5,169C 447.087,172.005 449.254,175.838 450,180.5C 452.464,192.46 452.797,204.46 451,216.5C 449.211,218.229 447.044,218.896 444.5,218.5C 443.955,233.179 443.121,247.846 442,262.5C 441.221,266.277 438.888,268.277 435,268.5C 431.538,267.87 428.038,267.703 424.5,268C 422.333,267.167 420.833,265.667 420,263.5C 418.874,248.48 417.707,233.48 416.5,218.5C 413.192,219.026 411.026,217.693 410,214.5C 409.019,202.733 409.685,191.067 412,179.5C 413.187,175.105 415.354,171.439 418.5,168.5 Z"/>
  </g>
  <g>
    <path style="opacity: 0.92; fill: rgb(255, 255, 255);" d="M 148.5,173.5 C 164.818,172.311 171.318,179.645 168,195.5C 163.185,203.415 156.352,205.915 147.5,203C 139.24,197.889 136.74,190.723 140,181.5C 142.074,177.923 144.907,175.256 148.5,173.5 Z"/>
  </g>
  <g>
    <path style="opacity: 0.928; fill: rgb(255, 255, 255);" d="M 307.5,173.5 C 323.833,172.999 330,180.666 326,196.5C 319.479,204.755 311.645,206.255 302.5,201C 293.462,189.718 295.129,180.551 307.5,173.5 Z"/>
  </g>
  <g>
    <path style="opacity: 0.933; fill: rgb(255, 255, 255);" d="M 92.5,180.5 C 110.093,181.688 116.26,190.688 111,207.5C 103.432,216.242 94.5984,217.742 84.5,212C 76.0284,201.714 76.6951,192.047 86.5,183C 88.6115,182.155 90.6115,181.322 92.5,180.5 Z"/>
  </g>
  <g>
    <path style="opacity: 0.96; fill: rgb(255, 255, 255);" d="M 190.5,180.5 C 200.172,180.334 209.839,180.5 219.5,181C 223.773,186.388 226.273,192.555 227,199.5C 228.265,207.469 228.598,215.469 228,223.5C 225.127,228.249 222.627,233.083 220.5,238C 219.711,246.833 218.878,255.666 218,264.5C 213.473,272.94 210.973,281.94 210.5,291.5C 206.188,290.597 201.855,290.431 197.5,291C 195.714,290.215 194.214,289.049 193,287.5C 191.252,270.205 190.086,252.872 189.5,235.5C 186.635,235.945 184.135,235.278 182,233.5C 180.906,219.399 181.573,205.399 184,191.5C 185.157,187.178 187.324,183.511 190.5,180.5 Z"/>
  </g>
  <g>
    <path style="opacity: 0.929; fill: rgb(255, 255, 255);" d="M 339.5,180.5 C 349.172,180.334 358.839,180.5 368.5,181C 369.687,182.019 370.687,183.186 371.5,184.5C 362.323,197.134 364.323,207.634 377.5,216C 372.983,216.263 368.649,217.263 364.5,219C 358.24,227.774 354.74,237.608 354,248.5C 353.333,260.833 353.333,273.167 354,285.5C 355.602,287.369 356.602,289.369 357,291.5C 356,290.833 355,290.167 354,289.5C 349.038,292.402 345.038,291.402 342,286.5C 340.819,268.525 340.152,250.525 340,232.5C 339.1,222.631 335.934,213.631 330.5,205.5C 331.428,199.027 332.928,192.694 335,186.5C 336.332,184.34 337.832,182.34 339.5,180.5 Z"/>
  </g>
  <g>
    <path style="opacity: 0.933; fill: rgb(255, 255, 255);" d="M 381.5,180.5 C 396.628,180.794 403.462,188.461 402,203.5C 397.015,214.239 388.849,217.739 377.5,214C 368.654,208.791 365.821,201.291 369,191.5C 371.505,185.822 375.671,182.155 381.5,180.5 Z"/>
  </g>
  <g>
    <path style="opacity: 0.012; fill: rgb(255, 255, 255);" d="M 162.5,203.5 C 163.833,204.167 163.833,204.167 162.5,203.5 Z"/>
  </g>
  <g>
    <path style="opacity: 0.078; fill: rgb(255, 255, 255);" d="M 320.5,203.5 C 321.833,204.167 321.833,204.167 320.5,203.5 Z"/>
  </g>
  <g>
    <path style="opacity: 0.961; fill: rgb(255, 255, 255);" d="M 140.5,206.5 C 150.58,206.077 160.58,206.577 170.5,208C 172.378,209.543 173.878,211.376 175,213.5C 177.683,220.244 179.349,227.244 180,234.5C 180.667,244.833 180.667,255.167 180,265.5C 178.323,269.051 175.49,270.384 171.5,269.5C 170.375,287.831 169.208,306.165 168,324.5C 165.668,331.944 161.002,333.944 154,330.5C 148.695,333.573 144.362,332.573 141,327.5C 139.003,308.219 137.503,288.886 136.5,269.5C 132.645,270.155 129.812,268.821 128,265.5C 127.333,255.5 127.333,245.5 128,235.5C 128.521,227.892 130.188,220.559 133,213.5C 134.767,210.228 137.267,207.895 140.5,206.5 Z"/>
  </g>
  <g>
    <path style="opacity: 0.963; fill: rgb(255, 255, 255);" d="M 298.5,206.5 C 307.839,206.334 317.173,206.5 326.5,207C 328.329,207.273 329.829,208.107 331,209.5C 335.034,216.635 337.368,224.301 338,232.5C 338.667,243.833 338.667,255.167 338,266.5C 335.804,269.125 332.97,270.125 329.5,269.5C 328.624,288.514 327.457,307.514 326,326.5C 322.601,332.3 317.934,333.633 312,330.5C 306.78,333.588 302.447,332.588 299,327.5C 297.334,308.171 295.834,288.837 294.5,269.5C 291.305,270.039 288.805,269.039 287,266.5C 284.494,249.62 285.494,232.953 290,216.5C 291.317,211.697 294.15,208.363 298.5,206.5 Z"/>
  </g>
  <g>
    <path style="opacity: 0.942; fill: rgb(255, 255, 255);" d="M 238.5,218.5 C 252.897,216.9 261.23,223.233 263.5,237.5C 261.45,251.383 253.45,257.55 239.5,256C 227.257,251.609 222.757,243.109 226,230.5C 228.769,224.895 232.936,220.895 238.5,218.5 Z"/>
  </g>
  <g>
    <path style="opacity: 0.973; fill: rgb(255, 255, 255);" d="M 77.5,219.5 C 89.8378,219.333 102.171,219.5 114.5,220C 119.032,224.577 121.866,230.077 123,236.5C 125.448,252.742 126.115,269.075 125,285.5C 124.535,286.931 123.701,288.097 122.5,289C 120.19,289.497 117.857,289.663 115.5,289.5C 114.374,311.19 112.874,332.857 111,354.5C 109.2,358.651 106.033,360.651 101.5,360.5C 96.2019,359.984 90.8686,359.818 85.5,360C 83.4299,359.052 81.9299,357.552 81,355.5C 78.7537,333.559 77.2537,311.559 76.5,289.5C 72.713,290.186 69.5463,289.186 67,286.5C 64.1448,266.096 65.8114,246.096 72,226.5C 73.6971,223.98 75.5305,221.647 77.5,219.5 Z"/>
  </g>
  <g>
    <path style="opacity: 0.973; fill: rgb(255, 255, 255);" d="M 366.5,219.5 C 378.838,219.333 391.171,219.5 403.5,220C 405.679,221.848 407.513,224.015 409,226.5C 415.175,246.099 416.842,266.099 414,286.5C 411.454,289.186 408.287,290.186 404.5,289.5C 403.624,309.846 402.458,330.179 401,350.5C 401.034,356.964 397.867,360.298 391.5,360.5C 386.202,359.984 380.869,359.818 375.5,360C 373,358.833 371.167,357 370,354.5C 368.08,332.86 366.58,311.194 365.5,289.5C 363.143,289.663 360.81,289.497 358.5,289C 357.299,288.097 356.465,286.931 356,285.5C 354.885,269.075 355.552,252.742 358,236.5C 359.265,229.969 362.099,224.302 366.5,219.5 Z"/>
  </g>
  <g>
    <path style="opacity: 0.974; fill: rgb(255, 255, 255);" d="M 224.5,260.5 C 237.504,260.333 250.504,260.5 263.5,261C 266,262.167 267.833,264 269,266.5C 275.03,281.2 277.864,296.534 277.5,312.5C 277,319.5 276.5,326.5 276,333.5C 275.5,335.333 274.333,336.5 272.5,337C 270.19,337.497 267.857,337.663 265.5,337.5C 264.421,361.19 262.921,384.856 261,408.5C 257.041,415.631 251.375,417.297 244,413.5C 237.859,416.816 232.526,415.816 228,410.5C 225.615,386.223 223.781,361.889 222.5,337.5C 217.513,338.651 214.013,336.984 212,332.5C 210.897,315.413 211.563,298.413 214,281.5C 215.435,273.297 218.935,266.297 224.5,260.5 Z"/>
  </g>
</svg>