<?xml version="1.0" encoding="utf-8"?>
<svg xmlns="http://www.w3.org/2000/svg" version="1.1" width="512px" height="512px" style="shape-rendering:geometricPrecision; text-rendering:geometricPrecision; image-rendering:optimizeQuality; fill-rule:evenodd; clip-rule:evenodd">
  <g>
    <path style="opacity: 0.935; fill: rgb(255, 255, 255);" d="M 144.5,7.5 C 162.778,5.63148 174.944,13.2981 181,30.5C 185.027,50.6271 177.527,64.1271 158.5,71C 140.203,73.3592 128.037,65.8592 122,48.5C 118.1,28.2833 125.6,14.6167 144.5,7.5 Z M 147.5,24.5 C 158.328,23.6583 164.328,28.6583 165.5,39.5C 163.229,52.7987 155.895,56.9654 143.5,52C 134.964,41.3277 136.298,32.161 147.5,24.5 Z"/>
  </g>
  <g>
    <path style="opacity: 0.936; fill: rgb(255, 255, 255);" d="M 248.5,7.5 C 267.8,5.89891 280.634,14.2322 287,32.5C 291.165,49.0092 286.665,62.8425 273.5,74C 250.352,84.6834 233.852,78.1834 224,54.5C 219.551,32.0584 227.718,16.3918 248.5,7.5 Z M 251.5,24.5 C 263.939,24.6028 270.606,30.9361 271.5,43.5C 270.617,56.2244 263.951,62.391 251.5,62C 240.842,56.1209 237.342,47.2876 241,35.5C 243.357,30.6455 246.857,26.9788 251.5,24.5 Z"/>
  </g>
  <g>
    <path style="opacity: 0.934; fill: rgb(255, 255, 255);" d="M 351.5,7.5 C 380.227,6.39139 392.727,20.0581 389,48.5C 380.733,69.7073 365.9,76.2073 344.5,68C 329.27,56.3941 325.103,41.5607 332,23.5C 336.518,15.6695 343.018,10.3362 351.5,7.5 Z M 355.5,24.5 C 366.789,23.7851 372.789,29.1185 373.5,40.5C 371.183,52.9816 364.183,57.1483 352.5,53C 345.537,46.9813 344.037,39.8147 348,31.5C 349.742,28.2543 352.242,25.921 355.5,24.5 Z"/>
  </g>
  <g>
    <path style="opacity: 0.937; fill: rgb(255, 255, 255);" d="M 135.5,79.5 C 145.839,79.3335 156.172,79.5002 166.5,80C 179.149,80.9103 189.982,85.7436 199,94.5C 202.493,102.181 200.16,106.847 192,108.5C 186.435,104.965 180.602,101.799 174.5,99C 159.167,94.3333 143.833,94.3333 128.5,99C 122.492,100.687 117.992,104.187 115,109.5C 108.183,132.62 102.183,155.953 97,179.5C 96.3333,183.5 96.3333,187.5 97,191.5C 98.2289,193.947 99.7289,194.113 101.5,192C 103.563,189.489 105.063,186.656 106,183.5C 109.466,167.835 112.799,152.168 116,136.5C 120.667,132.5 125.333,132.5 130,136.5C 131.057,139.207 131.557,142.04 131.5,145C 128.394,186.467 126.227,227.967 125,269.5C 125.79,271.79 127.124,272.123 129,270.5C 130.477,269.556 131.477,268.223 132,266.5C 136.002,245.826 140.002,225.159 144,204.5C 149,199.167 154,199.167 159,204.5C 162.881,223.783 166.547,243.116 170,262.5C 170.375,265 171.208,267.333 172.5,269.5C 174.074,270.631 175.741,270.798 177.5,270C 178.773,261.728 183.44,258.728 191.5,261C 195.13,264.05 196.297,267.883 195,272.5C 191.6,285.884 183.1,290.717 169.5,287C 163.159,285.325 158.659,281.492 156,275.5C 154.436,270.505 152.936,265.505 151.5,260.5C 150.098,269.467 146.431,277.3 140.5,284C 132.785,287.789 124.785,288.456 116.5,286C 111.478,282.456 108.644,277.623 108,271.5C 108.282,249.813 108.949,228.147 110,206.5C 95.8816,213.572 85.8816,209.905 80,195.5C 79.0436,186.048 79.7103,176.715 82,167.5C 87.2451,144.185 93.5784,121.185 101,98.5C 105.547,91.6383 111.713,86.805 119.5,84C 124.874,82.1604 130.207,80.6604 135.5,79.5 Z"/>
  </g>
  <g>
    <path style="opacity: 0.937; fill: rgb(255, 255, 255);" d="M 344.5,79.5 C 354.839,79.3335 365.172,79.5002 375.5,80C 400.188,82.3545 414.021,95.8545 417,120.5C 423.586,142.511 428.753,164.845 432.5,187.5C 430.194,207.566 419.694,213.899 401,206.5C 402.183,228.472 402.85,250.472 403,272.5C 401.132,281.924 395.466,287.258 386,288.5C 378.027,288.398 371.361,285.398 366,279.5C 363.135,273.405 360.968,267.072 359.5,260.5C 358.22,269.533 354.553,277.366 348.5,284C 340.785,287.789 332.785,288.456 324.5,286C 317.675,280.847 314.842,274.013 316,265.5C 316.785,263.714 317.951,262.214 319.5,261C 322.5,260.333 325.5,260.333 328.5,261C 331.302,264.059 333.302,267.559 334.5,271.5C 336.258,270.872 337.758,269.872 339,268.5C 343.749,248.342 347.749,228.008 351,207.5C 353.49,200.84 357.99,199.007 364.5,202C 365.333,202.833 366.167,203.667 367,204.5C 370.999,225.159 374.999,245.826 379,266.5C 379.998,269.337 381.998,271.003 385,271.5C 385.333,270.833 385.667,270.167 386,269.5C 384.773,227.967 382.606,186.467 379.5,145C 378.362,138.078 381.195,134.244 388,133.5C 390.814,133.408 393.147,134.408 395,136.5C 398.201,152.168 401.534,167.835 405,183.5C 406.374,187.609 408.708,190.943 412,193.5C 412.667,192.833 413.333,192.167 414,191.5C 414.717,185.775 414.384,180.109 413,174.5C 407.802,152.709 402.136,131.042 396,109.5C 392.099,102.795 386.266,98.9617 378.5,98C 364.502,95.0983 350.502,95.4316 336.5,99C 331.393,100.446 327.06,103.112 323.5,107C 314.39,109.216 310.223,105.716 311,96.5C 315.256,90.7784 320.756,86.6117 327.5,84C 333.211,82.1657 338.878,80.6657 344.5,79.5 Z"/>
  </g>
  <g>
    <path style="opacity: 0.939; fill: rgb(255, 255, 255);" d="M 239.5,95.5 C 252.213,95.1264 264.88,95.6264 277.5,97C 291.369,98.8496 302.869,105.016 312,115.5C 320.322,135.115 326.322,155.448 330,176.5C 334.471,194.928 336.137,213.595 335,232.5C 331.612,242.789 324.446,248.122 313.5,248.5C 309.365,248.007 305.365,247.007 301.5,245.5C 301.167,247.167 300.833,248.833 300.5,250.5C 302.665,276.462 303.498,302.462 303,328.5C 299.003,341.755 290.169,346.588 276.5,343C 267.702,340.869 262.202,335.369 260,326.5C 258.435,320.175 256.935,313.842 255.5,307.5C 253.959,315.664 251.792,323.664 249,331.5C 246.152,337.84 241.318,341.674 234.5,343C 220.831,346.588 211.997,341.755 208,328.5C 207.502,302.462 208.335,276.462 210.5,250.5C 210.167,248.833 209.833,247.167 209.5,245.5C 197.886,250.477 187.719,248.477 179,239.5C 177.725,237.283 176.725,234.949 176,232.5C 176.138,195.137 182.471,158.804 195,123.5C 200.382,111.785 209.216,103.951 221.5,100C 227.581,98.29 233.581,96.79 239.5,95.5 Z M 252.5,111.5 C 263.018,111.738 273.351,113.238 283.5,116C 290.722,118.511 296.222,123.011 300,129.5C 311.029,161.64 317.029,194.64 318,228.5C 314.117,232.463 310.451,232.13 307,227.5C 304.816,224.134 303.483,220.467 303,216.5C 299.84,197.882 297.173,179.215 295,160.5C 291.929,155.701 287.762,154.535 282.5,157C 281.299,157.903 280.465,159.069 280,160.5C 281.685,210.506 283.852,260.506 286.5,310.5C 286.333,315.5 286.167,320.5 286,325.5C 285.333,326.167 284.667,326.833 284,327.5C 278.15,325.857 275.15,321.857 275,315.5C 271.009,292.554 267.342,269.554 264,246.5C 261.393,240.184 256.893,238.35 250.5,241C 248.513,242.319 247.346,244.152 247,246.5C 243.688,272.023 239.354,297.357 234,322.5C 232.688,325.581 230.355,327.248 227,327.5C 226.333,326.833 225.667,326.167 225,325.5C 224.333,315.167 224.333,304.833 225,294.5C 227.148,253.665 229.315,212.832 231.5,172C 231.607,167.388 231.107,162.888 230,158.5C 222.82,153.782 217.82,155.449 215,163.5C 213.454,182.988 210.787,202.322 207,221.5C 205.802,225.746 203.302,228.913 199.5,231C 196.443,231.554 194.276,230.387 193,227.5C 194.058,193.208 200.391,159.874 212,127.5C 215.991,122.189 221.157,118.355 227.5,116C 235.818,113.615 244.151,112.115 252.5,111.5 Z"/>
  </g>
  <g>
    <path style="opacity: 0.935; fill: rgb(255, 255, 255);" d="M 20.5,207.5 C 39.1315,205.219 51.2981,212.885 57,230.5C 58.351,249.235 60.1843,267.902 62.5,286.5C 74.1396,281.755 85.1396,282.922 95.5,290C 114.167,306.667 132.833,323.333 151.5,340C 158.058,344.446 165.058,348.113 172.5,351C 195.967,365.467 212.467,385.634 222,411.5C 223.553,420.772 223.886,430.105 223,439.5C 221.471,447.948 219.471,456.281 217,464.5C 216.667,475.167 216.333,485.833 216,496.5C 214.244,502.964 210.077,505.13 203.5,503C 201.667,502.5 200.5,501.333 200,499.5C 199.333,487.167 199.333,474.833 200,462.5C 203.524,451.24 205.691,439.74 206.5,428C 206.21,416.463 202.71,405.963 196,396.5C 188.12,384.287 177.954,374.453 165.5,367C 157.495,363.561 149.828,359.561 142.5,355C 125.868,340.704 109.535,326.037 93.5,311C 89.3902,306.891 84.7235,303.557 79.5,301C 72.3755,299.485 67.2089,301.985 64,308.5C 63.3333,310.5 63.3333,312.5 64,314.5C 84.3047,335.805 104.971,356.805 126,377.5C 128.621,382.729 127.788,387.229 123.5,391C 120.036,391.817 116.702,391.483 113.5,390C 92.6667,369.167 71.8333,348.333 51,327.5C 49.2752,324.326 47.9419,320.993 47,317.5C 44.8195,289.486 42.4861,261.486 40,233.5C 37.592,226.41 32.7586,223.576 25.5,225C 24.8742,225.75 24.3742,226.584 24,227.5C 23.0272,262.214 23.3605,296.881 25,331.5C 30.8336,341.838 37.1669,351.838 44,361.5C 63.6667,386.833 83.3333,412.167 103,437.5C 108.835,445.832 114.168,454.499 119,463.5C 119.667,475.5 119.667,487.5 119,499.5C 114.357,504.453 109.357,504.787 104,500.5C 103.022,488.474 102.022,476.474 101,464.5C 76.7168,431.882 52.0502,399.549 27,367.5C 19.4315,356.913 13.0982,345.58 8,333.5C 7.33333,295.833 7.33333,258.167 8,220.5C 10.3531,214.315 14.5198,209.982 20.5,207.5 Z"/>
  </g>
  <g>
    <path style="opacity: 0.935; fill: rgb(255, 255, 255);" d="M 475.5,207.5 C 488.205,204.772 497.372,209.106 503,220.5C 503.667,258.167 503.667,295.833 503,333.5C 497.209,347.084 489.876,359.751 481,371.5C 462.333,395.5 443.667,419.5 425,443.5C 419.42,450.992 414.087,458.659 409,466.5C 408.667,476.833 408.333,487.167 408,497.5C 405.646,503.095 401.479,504.928 395.5,503C 394,502.167 392.833,501 392,499.5C 391.333,487.167 391.333,474.833 392,462.5C 395.582,454.997 399.915,447.997 405,441.5C 431.487,408.683 456.82,375.016 481,340.5C 483.478,336.365 485.478,332.032 487,327.5C 487.667,294.167 487.667,260.833 487,227.5C 486.242,225.09 484.575,224.09 482,224.5C 476.573,225.253 472.906,228.253 471,233.5C 468.616,261.495 466.282,289.495 464,317.5C 463.226,321.049 461.893,324.382 460,327.5C 439.167,348.333 418.333,369.167 397.5,390C 392.271,392.621 387.771,391.788 384,387.5C 383.183,384.036 383.517,380.702 385,377.5C 405.667,356.833 426.333,336.167 447,315.5C 448.368,309.731 446.534,305.231 441.5,302C 435.219,299.469 429.553,300.469 424.5,305C 405.833,321.667 387.167,338.333 368.5,355C 355.373,361.061 343.04,368.394 331.5,377C 320.144,387.542 311.644,400.042 306,414.5C 304.477,422.102 304.144,429.768 305,437.5C 306.844,445.875 308.844,454.208 311,462.5C 311.667,474.833 311.667,487.167 311,499.5C 310.5,501.333 309.333,502.5 307.5,503C 300.923,505.13 296.756,502.964 295,496.5C 294.667,485.833 294.333,475.167 294,464.5C 289.963,452.482 287.796,440.148 287.5,427.5C 287.446,422.101 287.946,416.767 289,411.5C 298.533,385.634 315.033,365.467 338.5,351C 345.942,348.113 352.942,344.446 359.5,340C 378.167,323.333 396.833,306.667 415.5,290C 425.86,282.922 436.86,281.755 448.5,286.5C 450.765,268.231 452.598,249.898 454,231.5C 456.472,219.199 463.639,211.199 475.5,207.5 Z"/>
  </g>
</svg>